PathFileType	4	(X/Y/Z)	..\data\2014014\dynamic\2014014_C4_04.trc
DataRate	CameraRate	NumFrames	NumMarkers	Units	OrigDataRate	OrigDataStartFrame	OrigNumFrames
100.000000	100.000000	4	48	mm	100.000000	0	178
Frame#	Time	L_IAS			L_IPS			R_IPS			R_IAS			L_FTC			L_FLE			L_FME			L_FAX			L_TTC			L_FAL			L_TAM			L_FCC			L_FM1			L_FM2			L_FM5			R_FTC			R_FLE			R_FME			R_FAX			R_TTC			R_FAL			R_TAM			R_FCC			R_FM1			R_FM2			R_FM5			CV7			TV10			SXS			SJN			L_SAA			L_SAE			L_HLE			L_HME			L_UOA			L_RSP			L_UHE			L_HM2			L_HM5			R_SAA			R_SAE			R_HLE			R_HME			R_UOA			R_RSP			R_UHE			R_HM2			R_HM5			
		X1	Y1	Z1	X2	Y2	Z2	X3	Y3	Z3	X4	Y4	Z4	X5	Y5	Z5	X6	Y6	Z6	X7	Y7	Z7	X8	Y8	Z8	X9	Y9	Z9	X10	Y10	Z10	X11	Y11	Z11	X12	Y12	Z12	X13	Y13	Z13	X14	Y14	Z14	X15	Y15	Z15	X16	Y16	Z16	X17	Y17	Z17	X18	Y18	Z18	X19	Y19	Z19	X20	Y20	Z20	X21	Y21	Z21	X22	Y22	Z22	X23	Y23	Z23	X24	Y24	Z24	X25	Y25	Z25	X26	Y26	Z26	X27	Y27	Z27	X28	Y28	Z28	X29	Y29	Z29	X30	Y30	Z30	X31	Y31	Z31	X32	Y32	Z32	X33	Y33	Z33	X34	Y34	Z34	X35	Y35	Z35	X36	Y36	Z36	X37	Y37	Z37	X38	Y38	Z38	X39	Y39	Z39	X40	Y40	Z40	X41	Y41	Z41	X42	Y42	Z42	X43	Y43	Z43	X44	Y44	Z44	X45	Y45	Z45	X46	Y46	Z46	X47	Y47	Z47	X48	Y48	Z48	

1	0	-60.99525070190431	979.818786621094	-119.7296566040048	-273.4064025878907	996.0740966796877	-28.94627714519412	-274.7042236328126	996.4309082031252	68.94627714519412	-75.98196411132814	976.2182617187502	159.7296566040048	-125.2886352539063	881.1781005859377	-168.8364664171059	-6.093544006347658	488.2123413085939	-132.8068082918402	-3.44633960723877	483.743621826172	4.73616952572034	-4.088702678680421	427.5477294921876	-127.5034208841393	69.18718719482423	440.8824462890626	-68.54266881243612	120.005355834961	71.66482543945314	-119.3286701318263	140.2412109375	113.4708633422852	-17.89666597850206	93.23164367675783	11.63738346099854	-63.35014095580774	282.6725769042969	77.17832946777345	-34.67283560363096	276.9315795898438	93.10317993164064	-75.85478284948589	239.3297576904297	54.05308151245119	-136.6788472364645	-165.4353790283203	877.6595458984377	201.77977018891	-269.3423156738282	482.5564880371095	168.1761551397474	-227.0466308593751	482.3538513183595	39.89448362637252	-305.0410156250001	434.9144897460939	167.9111784980278	-235.3838653564454	408.0279846191407	108.8162272066081	-418.6920471191407	73.60137176513673	159.7178475624646	-366.3431701660157	95.83242797851564	58.05492402872793	-450.8403625488282	38.42320251464844	103.5203760469626	-251.2748260498047	18.72437477111817	74.31989194537282	-249.4039916992188	33.73353958129884	116.2531535677032	-299.8034667968751	15.00624752044678	178.1868656505937	-204.9038543701172	1521.555419921875	22.33197663849248	-306.8487854003907	1280.801635742188	22.33197663849248	-37.52777481079102	1238.932861328125	22.33197663849248	-81.45603942871095	1422.926879882813	22.23227489079067	-244.9600982666016	1450.118896484375	-219.6455385149378	-200.1047515869141	1444.85205078125	-176.1371861577316	-259.3485717773438	1111.319946289063	-258.8717543254914	-286.4119567871094	1105.946411132813	-174.535390332801	-299.0031433105469	1099.144897460938	-210.2361499973812	-217.0373535156251	842.3384399414065	-239.5967179865834	-290.7434387207032	857.8809204101565	-265.4190523397495	-210.2659759521485	752.0491943359376	-244.7565623451693	-314.9712829589844	776.5660400390627	-246.8581665756566	-200.9007568359376	1423.066284179688	259.6455385149378	-156.8958740234375	1419.62060546875	216.1373355492392	-116.0267181396485	1088.3916015625	304.6079114146845	-146.8584899902344	1063.01318359375	207.9388096802291	-155.0462799072266	1055.743041992188	248.860189315611	46.91129684448243	876.1724243164065	279.4189228109762	-10.76162624359131	860.4185180664065	306.295032088454	112.932357788086	809.7282714843752	285.0291244398524	18.56393814086914	765.9212646484376	287.1250341336798	
2	0.01	-48.76596069335939	978.0665283203127	-119.7296566040048	-261.5197448730469	994.6121215820315	-28.94627714519412	-262.8506164550782	995.0576782226565	68.94627714519412	-64.47578430175783	974.9101562500002	159.7296566040048	-113.0008392333985	879.4592285156252	-168.8364664171059	3.797758102416993	486.395965576172	-132.8068082918402	4.87942934036255	481.9850158691407	4.73616952572034	6.964298248291017	426.1278381347657	-127.5034208841393	79.50088500976564	440.4456787109376	-68.54266881243612	136.6627807617188	72.2160110473633	-119.3286701318263	155.126708984375	113.7607498168946	-17.89666597850206	109.6919555664063	11.82617473602295	-63.35014095580774	298.2583312988282	79.38044738769533	-34.67283560363096	293.3366088867188	94.97438812255861	-75.85478284948589	256.8269653320313	55.54037094116212	-136.6788472364645	-154.5142669677735	876.6486816406252	201.77977018891	-261.1179809570313	482.3652648925782	168.1761551397474	-218.1255035400391	481.4552612304689	39.89448362637252	-297.4894104003907	435.203582763672	167.9111784980278	-228.1534271240235	407.2230834960939	108.8162272066081	-417.6886596679689	75.76673889160158	159.7178475624646	-365.3285522460938	97.53149414062503	58.05492402872793	-450.6678466796876	41.34588241577149	103.5203760469626	-251.1037902832032	18.68280601501465	74.31989194537282	-249.1517028808594	33.82021713256837	116.2531535677032	-299.7789611816407	15.17173194885254	178.1868656505937	-193.7088165283204	1520.093872070313	22.33197663849248	-295.3811645507813	1279.232177734375	22.33197663849248	-25.82705307006837	1237.784301757813	22.33197663849248	-70.15940856933595	1421.589477539063	22.23227489079067	-233.5001220703126	1448.180053710938	-219.6455385149378	-188.6851959228516	1442.864379882813	-176.1371861577316	-248.6968536376954	1109.317504882813	-258.8717543254914	-275.5166320800782	1104.1728515625	-174.535390332801	-288.2463684082032	1097.297729492188	-210.2361499973812	-207.461654663086	840.2811279296877	-239.5967179865834	-281.1457519531251	855.9930419921877	-265.4190523397495	-201.1839294433594	749.7568359375001	-244.7565623451693	-305.7776794433594	774.7391357421877	-246.8581665756566	-189.8875122070313	1421.921142578125	259.6455385149378	-145.8192749023438	1418.495727539063	216.1373355492392	-104.5420761108399	1087.706420898438	304.6079114146845	-135.089111328125	1061.945556640625	207.9388096802291	-143.4327850341797	1054.825805664063	248.860189315611	59.34615707397462	876.070251464844	279.4189228109762	1.705152988433838	860.1294555664065	306.295032088454	125.7092437744141	810.1929321289065	285.0291244398524	31.54981994628907	765.8432617187501	287.1250341336798	
3	0.02	-36.35239410400391	976.5407714843752	-119.7296566040048	-249.4261322021485	993.3206176757815	-28.94627714519412	-250.7920379638672	993.7930297851565	68.94627714519412	-52.73451995849611	973.712585449219	159.7296566040048	-100.4310836791992	878.089050292969	-168.8364664171059	14.09387111663819	484.877899169922	-132.8068082918402	13.61025905609131	480.4870605468751	4.73616952572034	17.9980640411377	424.8784484863282	-127.5034208841393	89.78682708740236	439.8169250488282	-68.54266881243612	150.7840270996094	72.3838577270508	-119.3286701318263	167.7291717529297	113.5387420654297	-17.89666597850206	122.98388671875	12.17612934112549	-63.35014095580774	311.2207641601563	80.02475738525392	-34.67283560363096	307.2035217285157	95.23705291748048	-75.85478284948589	271.4427185058594	55.68007278442384	-136.6788472364645	-143.3724517822266	875.7269287109377	201.77977018891	-252.4855499267579	482.2246398925782	168.1761551397474	-208.8192749023438	480.5597534179689	39.89448362637252	-289.5301818847657	435.5616455078126	167.9111784980278	-220.5625305175782	406.434539794922	108.8162272066081	-416.5509643554689	78.18006134033205	159.7178475624646	-364.2577819824219	99.453483581543	58.05492402872793	-450.5210571289064	44.68209075927735	103.5203760469626	-250.969711303711	18.60574531555176	74.31989194537282	-248.9039154052735	33.89336013793946	116.2531535677032	-299.7289428710938	15.22783660888672	178.1868656505937	-182.4617309570313	1518.755249023438	22.33197663849248	-283.8132629394532	1277.751953125	22.33197663849248	-14.01826667785645	1236.779174804688	22.33197663849248	-58.79052734375001	1420.3837890625	22.23227489079067	-221.9286041259766	1446.341064453125	-219.6455385149378	-177.1474609375	1440.958862304688	-176.1371861577316	-237.6636505126954	1107.337768554688	-258.8717543254914	-264.3683776855469	1102.418090820313	-174.535390332801	-277.1338500976563	1095.453491210938	-210.2361499973812	-197.4432067871094	838.2820434570315	-239.5967179865834	-271.0677795410157	854.1157836914065	-265.4190523397495	-191.5924530029297	747.5509643554689	-244.7565623451693	-296.0490417480469	772.9204711914065	-246.8581665756566	-178.9398193359375	1420.880737304688	259.6455385149378	-134.7403869628907	1417.455322265625	216.1373355492392	-93.21319580078126	1087.038208007813	304.6079114146845	-123.4151153564453	1060.941772460938	207.9388096802291	-131.9800872802735	1053.967651367188	248.860189315611	71.41492462158205	875.8892822265627	279.4189228109762	13.79329872131348	859.7519531250002	306.295032088454	138.02734375	810.4070434570315	285.0291244398524	43.98516845703126	765.6543579101564	287.1250341336798	
4	0.03	-23.76184463500977	975.3227539062502	-119.7296566040048	-237.1363220214844	992.2465820312502	-28.94627714519412	-238.527816772461	992.6646118164065	68.94627714519412	-40.74817657470704	972.6513671875002	159.7296566040048	-87.58164215087892	877.1455688476565	-168.8364664171059	24.77045249938966	483.6889953613282	-132.8068082918402	22.79209327697754	479.2864379882814	4.73616952572034	29.00134849548341	423.8127441406251	-127.5034208841393	100.0645065307617	439.022430419922	-68.54266881243612	162.5453186035157	72.1137161254883	-119.3286701318263	178.2402038574219	112.7953491210938	-17.89666597850206	133.3049774169922	12.63767337799073	-63.35014095580774	321.7682189941407	79.08412170410158	-34.67283560363096	318.7275695800782	93.86325073242189	-75.85478284948589	283.3501892089844	54.42958068847658	-136.6788472364645	-131.966064453125	874.900573730469	201.77977018891	-243.3552246093751	482.1216735839845	168.1761551397474	-199.0874023437501	479.6639709472657	39.89448362637252	-281.1098632812501	435.984344482422	167.9111784980278	-212.5542602539063	405.6587524414064	108.8162272066081	-415.2315368652345	80.86536407470705	159.7178475624646	-363.0450134277344	101.6076354980469	58.05492402872793	-450.3188781738282	48.47497558593751	103.5203760469626	-250.8855895996094	18.47181129455567	74.31989194537282	-248.6713867187501	33.92690658569337	116.2531535677032	-299.6684875488282	15.14642143249512	178.1868656505937	-171.1619110107422	1517.578002929688	22.33197663849248	-272.1491088867188	1276.400390625	22.33197663849248	-2.114525556564331	1235.95068359375	22.33197663849248	-47.35207748413087	1419.349975585938	22.23227489079067	-210.2628936767579	1444.640991210938	-219.6455385149378	-165.5074310302735	1439.175659179688	-176.1371861577316	-226.2353820800782	1105.415405273438	-258.8717543254914	-252.9489288330079	1100.712036132813	-174.535390332801	-265.6521606445313	1093.64501953125	-210.2361499973812	-186.9684295654297	836.3709106445315	-239.5967179865834	-260.4997558593751	852.2856445312502	-265.4190523397495	-181.4846343994141	745.4650268554689	-244.7565623451693	-285.7756652832032	771.149353027344	-246.8581665756566	-168.057846069336	1419.992553710938	259.6455385149378	-123.6426315307617	1416.542236328125	216.1373355492392	-82.04286193847658	1086.423583984375	304.6079114146845	-111.845573425293	1060.039428710938	207.9388096802291	-120.6948547363282	1053.2080078125	248.860189315611	83.11038208007814	875.6323852539065	279.4189228109762	25.47107696533204	859.3157348632815	306.295032088454	149.8682861328125	810.3935546875002	285.0291244398524	55.84720611572267	765.3756103515626	287.1250341336798	
